<svg width="19" height="21" viewBox="0 0 19 21" fill="none" xmlns="http://www.w3.org/2000/svg">
<path d="M1.5 18V18.5H2H5.5V19.5H2C1.60218 19.5 1.22064 19.342 0.93934 19.0607C0.658035 18.7794 0.5 18.3978 0.5 18V2C0.5 1.60218 0.658035 1.22064 0.93934 0.93934C1.22064 0.658035 1.60218 0.5 2 0.5H9.79289L15.5 6.20711V7.89289L14.5 8.89289V7V6.5H14H9.5V2V1.5H9H2H1.5V2V18ZM4.5 10.5H11.5V11.5H4.5V10.5ZM8.5 14.8929L7.89289 15.5H4.5V14.5H8.5V14.8929ZM16.1905 11.5171C16.2039 11.5243 16.2166 11.5321 16.2277 11.5397C16.242 11.5494 16.2478 11.5549 16.247 11.5541L17.541 12.8481C17.5415 12.8491 17.542 12.8505 17.5426 12.8521C17.5464 12.8625 17.55 12.8793 17.55 12.9C17.55 12.9207 17.5464 12.9375 17.5426 12.9479C17.542 12.9495 17.5415 12.9509 17.541 12.9519L16.9 13.5929L15.5071 12.2L16.1536 11.5536C16.1696 11.5375 16.1811 11.5261 16.1905 11.5171ZM14.1 13.5071L15.4929 14.9L9.89289 20.5H8.5V19.1071L14.1 13.5071Z" fill="#363C56" stroke="#363C56"/>
</svg>
